<?xml version="1.0" encoding="UTF-8"?>
<!-- Generator: Adobe Illustrator 25.4.1, SVG Export Plug-In . SVG Version: 6.00 Build 0)  -->
<svg version="1.1" id="Layer_1" xmlns="http://www.w3.org/2000/svg" xmlns:xlink="http://www.w3.org/1999/xlink" x="0px" y="0px" viewBox="0 0 371.9 54.1" style="enable-background:new 0 0 371.9 54.1;" xml:space="preserve">
<style type="text/css">
	.st0{enable-background:new    ;}
	.st1{fill:none;stroke:#000000;stroke-width:1.9;stroke-linecap:round;stroke-miterlimit:10;}
</style>
<g transform="translate(-123 -81)">
	<g transform="translate(-484.872 44.828)">
		<g class="st0">
			<path d="M812.1,61.3c-1.8,0-3-0.2-4.1-0.3c-0.4-0.1-0.5-0.2-0.5-0.5v-1c0-0.3,0.2-0.4,0.4-0.4c0,0,0,0,0.1,0     c1.1,0.1,3,0.1,4.1,0.1c3,0,3.8-1.2,3.8-2.9c0-1.2-0.7-1.9-3-3.3l-2.4-1.5c-2.3-1.4-3.4-2.7-3.4-4.7c0-3,2.2-4.4,6-4.4     c1.5,0,3.4,0.1,4.3,0.3c0.2,0,0.4,0.2,0.4,0.4v1.1c0,0.2-0.2,0.4-0.4,0.4c0,0,0,0-0.1,0c-1.1-0.1-2.8-0.2-4.3-0.2     c-2.6,0-3.7,0.5-3.7,2.4c0,1.2,0.8,1.9,2.7,3l2.3,1.4c2.9,1.7,3.9,3.1,3.9,5.1C818.2,58.7,817,61.3,812.1,61.3z"/>
			<path d="M837.2,61.2H836c-0.3,0-0.5-0.2-0.5-0.5v-8.8c0-2.1-1-2.7-2.3-2.7c-0.9,0-1.9,0.3-2.9,0.7c0.2,0.6,0.2,1.2,0.2,2v8.9     c0,0.2-0.2,0.5-0.4,0.5h-1.3c-0.2,0-0.4-0.2-0.4-0.5v-8.9c0-2.2-0.6-2.6-1.9-2.6c-0.9,0-2,0.5-3,1v10.5c0,0.2-0.2,0.5-0.5,0.5     h-1.3c-0.2,0-0.4-0.2-0.4-0.5V47.9c0-0.3,0.2-0.5,0.5-0.5h1.2c0.3,0,0.5,0.2,0.5,0.5v0.5c1-0.6,2.3-1.2,3.6-1.2     c1.1,0,1.9,0.3,2.5,1c1.4-0.6,2.8-1,4.1-1c2.2,0,4,1.1,4,4.6v8.8C837.7,60.9,837.5,61.2,837.2,61.2z"/>
			<path d="M850.2,61.2h-1.2c-0.3,0-0.5-0.2-0.5-0.5v-0.5c-1.2,0.7-2.4,1.2-3.8,1.2c-2.1,0-4.1-0.9-4.1-4V57c0-2.7,1.6-4,6-4h1.8v-1     c0-2.1-0.7-2.8-2.7-2.8c-1.6,0-2.8,0.1-3.8,0.2c0,0-0.1,0-0.1,0c-0.2,0-0.5-0.1-0.5-0.4V48c0-0.3,0.2-0.4,0.5-0.5     c1-0.2,2.2-0.3,3.9-0.3c3.5,0,4.9,1.8,4.9,4.7v8.7C850.7,60.9,850.5,61.2,850.2,61.2z M848.5,54.5h-1.8c-3,0-3.8,0.7-3.8,2.4v0.3     c0,1.8,0.8,2.3,2.3,2.3c1.1,0,2.2-0.3,3.4-1V54.5z"/>
			<path d="M859.8,49.1c-1.1,0-2.2,0.3-3.4,1v10.5c0,0.2-0.2,0.5-0.5,0.5h-1.2c-0.2,0-0.5-0.2-0.5-0.5V47.9c0-0.3,0.2-0.5,0.5-0.5     h1.2c0.3,0,0.5,0.2,0.5,0.5v0.5c1.2-0.9,2.4-1.2,3.5-1.2c0.3,0,0.5,0.2,0.5,0.5v1C860.3,49,860.1,49.1,859.8,49.1z"/>
			<path d="M869.5,61.2c-0.5,0.1-1.1,0.1-1.6,0.1c-2.3,0-3.4-0.6-3.4-3.3v-8.7l-2.4-0.3c-0.3,0-0.5-0.2-0.5-0.5v-0.7     c0-0.3,0.2-0.5,0.5-0.5h2.4V45c0-0.2,0.2-0.4,0.5-0.5l1.3-0.2c0,0,0,0,0.1,0c0.2,0,0.4,0.2,0.4,0.4v2.7h2.7     c0.3,0,0.5,0.2,0.5,0.5v0.9c0,0.3-0.2,0.5-0.5,0.5h-2.7V58c0,1.4,0.4,1.6,1.3,1.6h1.4c0.3,0,0.5,0.1,0.5,0.3v0.9     C870,61,869.8,61.2,869.5,61.2z"/>
			<path d="M890.2,44.5h-4.9v16.1c0,0.2-0.2,0.5-0.5,0.5h-1.4c-0.2,0-0.4-0.2-0.4-0.5V44.5h-4.9c-0.3,0-0.5-0.1-0.5-0.4v-1.1     c0-0.2,0.2-0.5,0.5-0.5h12c0.3,0,0.5,0.2,0.5,0.5v1.1C890.6,44.4,890.4,44.5,890.2,44.5z"/>
			<path d="M901.3,55H893v0.4c0,3,1.2,4.1,3.5,4.1c1.5,0,3.3-0.1,4.4-0.3c0,0,0.1,0,0.1,0c0.2,0,0.4,0.1,0.4,0.3v0.8     c0,0.3-0.1,0.5-0.5,0.6c-1.4,0.3-2.8,0.4-4.5,0.4c-2.9,0-5.7-1.3-5.7-6v-2.2c0-3.6,2-5.8,5.5-5.8c3.6,0,5.5,2.3,5.5,5.8v1.3     C901.8,54.8,901.6,55,901.3,55z M899.6,53.1c0-2.8-1.1-3.9-3.3-3.9c-2.1,0-3.3,1.2-3.3,3.9v0.2h6.6V53.1z"/>
			<path d="M912.8,61.1c-0.8,0.1-1.9,0.3-3.1,0.3c-3.4,0-5.3-2.4-5.3-6.1v-1.9c0-3.7,1.9-6.1,5.3-6.1c1.1,0,2.3,0.1,3.1,0.3     c0.4,0.1,0.5,0.2,0.5,0.5V49c0,0.2-0.2,0.4-0.4,0.4c0,0-0.1,0-0.1,0c-1.1-0.1-1.9-0.2-3.1-0.2c-2,0-3.1,1.3-3.1,4.1v1.9     c0,2.8,1.1,4.1,3.1,4.1c1.2,0,2,0,3.1-0.2c0,0,0,0,0.1,0c0.2,0,0.4,0.1,0.4,0.4v0.9C913.3,60.8,913.2,61,912.8,61.1z"/>
			<path d="M926.1,61.2h-1.2c-0.3,0-0.5-0.2-0.5-0.5v-8.2c0-2.5-1-3.3-2.7-3.3c-0.8,0-2.3,0.2-3.4,0.7v10.8c0,0.2-0.2,0.5-0.5,0.5     h-1.2c-0.2,0-0.5-0.2-0.5-0.5V42.9c0-0.3,0.2-0.5,0.5-0.5h1.2c0.3,0,0.5,0.2,0.5,0.5V48c1.2-0.5,2.8-0.8,3.8-0.8     c2.6,0,4.5,1.5,4.5,5.2v8.2C926.6,60.9,926.4,61.2,926.1,61.2z"/>
			<path d="M940,61.2h-1.2c-0.3,0-0.5-0.2-0.5-0.5v-8.2c0-2.5-0.8-3.3-2.7-3.3c-1,0-2.2,0.4-3.4,1v10.5c0,0.2-0.2,0.5-0.5,0.5h-1.2     c-0.2,0-0.5-0.2-0.5-0.5V47.9c0-0.3,0.2-0.5,0.5-0.5h1.2c0.3,0,0.5,0.2,0.5,0.5v0.5c1.4-0.8,2.5-1.2,4-1.2c3,0,4.3,1.9,4.3,5.2     v8.2C940.5,60.9,940.3,61.2,940,61.2z"/>
			<path d="M946,45.2h-1.3c-0.3,0-0.5-0.2-0.5-0.5v-2c0-0.3,0.2-0.5,0.5-0.5h1.3c0.3,0,0.5,0.2,0.5,0.5v2     C946.5,45,946.3,45.2,946,45.2z M945.9,61.2h-1.2c-0.3,0-0.5-0.2-0.5-0.5V47.9c0-0.3,0.2-0.5,0.5-0.5h1.2c0.3,0,0.5,0.2,0.5,0.5     v12.7C946.4,60.9,946.2,61.2,945.9,61.2z"/>
			<path d="M958.1,61.1c-0.8,0.1-1.9,0.3-3.1,0.3c-3.4,0-5.3-2.4-5.3-6.1v-1.9c0-3.7,1.9-6.1,5.3-6.1c1.1,0,2.3,0.1,3.1,0.3     c0.4,0.1,0.5,0.2,0.5,0.5V49c0,0.2-0.2,0.4-0.4,0.4c0,0-0.1,0-0.1,0c-1.1-0.1-1.9-0.2-3.1-0.2c-2,0-3.1,1.3-3.1,4.1v1.9     c0,2.8,1.1,4.1,3.1,4.1c1.2,0,2,0,3.1-0.2c0,0,0,0,0.1,0c0.2,0,0.4,0.1,0.4,0.4v0.9C958.6,60.8,958.5,61,958.1,61.1z"/>
			<path d="M965.5,61.3c-0.9,0-2.7-0.1-3.9-0.4c-0.3-0.1-0.5-0.2-0.5-0.5v-0.9c0-0.2,0.2-0.4,0.5-0.4c0,0,0.1,0,0.1,0     c1.2,0.1,3,0.3,3.9,0.3c1.6,0,2.5-0.4,2.5-1.8c0-0.8-0.5-1.2-1.9-2.1l-2.5-1.5c-1.5-0.9-2.5-2-2.5-3.6c0-2.6,2-3.3,4.5-3.3     c1.4,0,2.7,0.1,3.9,0.3c0.3,0,0.5,0.2,0.5,0.5v0.8c0,0.3-0.2,0.4-0.4,0.4c0,0,0,0-0.1,0c-0.9-0.1-2.5-0.2-3.9-0.2     s-2.3,0.2-2.3,1.4c0,0.8,0.6,1.2,1.7,1.9l2.5,1.5c2.1,1.2,2.8,2.3,2.8,3.8C970.1,60.3,968.2,61.3,965.5,61.3z"/>
		</g>
		<path d="M682,43.8c-1.4-0.3-2.8-0.4-4.3-0.4c-2.3,0-7.8,0.8-7.8,8.4v3.9c0,7.8,6,8.4,7.8,8.4c1.4,0,2.9-0.1,4.3-0.4    c0.4-0.1,0.8-0.4,0.8-0.9V61c0-0.4-0.3-0.8-0.7-0.8c0,0-0.1,0-0.1,0h-0.1c-0.7,0.1-2.6,0.2-4.1,0.2c-2.4,0-3.6-1.5-3.6-4.7v-3.9    c0-3.2,1.1-4.7,3.6-4.7c1.3,0,3,0.1,4.1,0.2h0.1c0.4,0,0.8-0.3,0.8-0.7c0,0,0-0.1,0-0.1v-1.8C682.8,44.3,682.5,43.9,682,43.8"/>
		<path d="M692.7,43.4c-5.1,0-7.9,3-7.9,8.6v3.6c0,5.5,2.8,8.6,7.9,8.6s7.9-3,7.9-8.6V52C700.6,46.4,697.8,43.4,692.7,43.4     M689.2,52c0-3.3,1.1-4.8,3.6-4.8s3.6,1.5,3.6,4.8v3.6c0,3.3-1.1,4.8-3.6,4.8s-3.6-1.5-3.6-4.8V52z"/>
		<path d="M714.4,63.7c0.5-0.1,0.8-0.3,0.8-0.8v-1.7c0-0.5-0.4-0.8-0.8-0.8h-4.9c-1.4,0-1.8-0.4-1.8-2v-14c0-0.5-0.4-0.8-0.8-0.8    h-2.6c-0.5,0-0.8,0.4-0.8,0.8v14c0,5.1,3.4,5.7,6.4,5.7C711.4,64.1,712.9,64,714.4,63.7"/>
		<path d="M721.4,63.1v-6.9l0.4,0c0.6,0,1.2,0.1,1.7,0.1h0.2l3.8,7c0.1,0.3,0.3,0.6,0.8,0.6h3.2c0.3,0,0.6-0.2,0.6-0.6    c0,0,0,0,0-0.1c0-0.1,0-0.2-0.1-0.3l-4-7.5c2.2-0.9,3.6-3.2,3.5-5.6v-0.2c0-4.1-2.8-6.3-7.9-6.3c-1.8,0-3.5,0.1-5.2,0.3    c-0.5,0.1-1.1,0.3-1.1,1.1v18.3c0,0.5,0.4,0.8,0.8,0.8h2.7C721.1,63.9,721.4,63.5,721.4,63.1C721.4,63.1,721.4,63.1,721.4,63.1     M721.4,47.2c0.6,0,1.6-0.1,2.1-0.1c2.6,0,3.7,0.8,3.7,2.5v0.2c0,2.1-1,2.8-3.7,2.8c-0.4,0-1.5,0-2.1-0.1V47.2z"/>
		<path d="M741.9,64.1c5,0,7.6-2.6,7.6-7.8V44.4c0-0.4-0.4-0.8-0.8-0.8c0,0,0,0,0,0h-2.6c-0.4,0-0.8,0.3-0.8,0.8c0,0,0,0,0,0v11.9    c0,3.1-0.8,4.2-3.3,4.2s-3.3-1.1-3.3-4.2V44.4c0-0.4-0.4-0.8-0.8-0.8c0,0,0,0,0,0h-2.6c-0.4,0-0.8,0.3-0.8,0.8c0,0,0,0,0,0v11.9    C734.3,61.5,736.9,64.1,741.9,64.1"/>
		<path d="M766.3,43.6h-2.9c-0.4,0-0.7,0.3-0.8,0.6l-3.2,7.9c-0.1,0.1-0.1,0.2-0.2,0.4c-0.1-0.1-0.2-0.2-0.2-0.4l-3.2-7.9    c-0.1-0.4-0.4-0.6-0.8-0.6h-2.9c-0.4,0-0.7,0.3-0.7,0.7c0,0,0,0,0,0c0,0.1,0,0.2,0.1,0.3l4,9.2c0.3,0.8,0.8,1.5,1.6,2v7.2    c0,0.4,0.3,0.8,0.8,0.8c0,0,0,0,0,0h2.7c0.4,0,0.8-0.4,0.8-0.8c0,0,0,0,0,0v-7.2c0.8-0.5,1.3-1.2,1.6-2l4-9.3    c0-0.1,0.1-0.2,0.1-0.3C767,43.9,766.7,43.6,766.3,43.6"/>
		<path d="M781.6,43.6h-13c-0.4,0-0.8,0.3-0.8,0.8c0,0,0,0,0,0v2.1c0,0.4,0.4,0.8,0.8,0.8c0,0,0,0,0,0h4.4v15.8    c0,0.5,0.4,0.8,0.8,0.8h2.6c0.5,0,0.8-0.4,0.8-0.8V47.3h4.3c0.4,0,0.8-0.3,0.8-0.7c0,0,0,0,0,0v-2.1C782.4,44,782,43.6,781.6,43.6    C781.6,43.6,781.6,43.6,781.6,43.6"/>
		<path d="M681.7,68.7c-1.6-0.2-3.2-0.3-4.8-0.3c-2.1,0-6.9,0.8-6.9,8.6v3.3c0,5.5,2.5,8.7,6.9,8.7c1.5,0,3-0.1,4.4-0.3l0.3,0    c0.4,0,0.7-0.4,0.7-0.8v-8.9c0-0.4-0.3-0.8-0.7-0.8c0,0,0,0,0,0h-0.3c-0.4,0-0.7,0.4-0.7,0.8c0,0,0,0,0,0v8.2    c-1.2,0.1-2.5,0.2-3.7,0.2c-3.4,0-5.2-2.4-5.2-7v-3.3c0-5.8,2.8-7,5.2-7c1.6,0,3.1,0.1,4.7,0.3h0.2c0.3,0.1,0.6-0.2,0.7-0.5    c0-0.1,0-0.1,0-0.2v-0.3C682.4,69.1,682.3,68.8,681.7,68.7"/>
		<path d="M693.9,79.8c3.1-0.7,4.6-2.4,4.6-5.5v-0.1c0-4-2.2-5.7-7.5-5.7c-1.2,0-3.2,0.1-4.2,0.1c-0.4,0.1-0.7,0.4-0.7,0.8v18.7    c0,0.4,0.3,0.8,0.7,0.8h0.3c0.4,0,0.8-0.4,0.7-0.8c0,0,0,0,0,0v-8.1c0.7,0,2.3,0,3.1,0h1l5.6,8.5c0.1,0.2,0.4,0.3,0.6,0.4h0.3    c0.4,0,0.7-0.3,0.7-0.6c0,0,0,0,0-0.1c0-0.2-0.1-0.4-0.2-0.5L693.9,79.8z M687.8,70.2c0.8-0.1,2.2-0.1,3.1-0.1    c4.1,0,5.8,1.1,5.8,4v0.1c0,3-1.4,4-5.8,4c-0.4,0-1.1,0-1.8,0c-0.5,0-1,0-1.4,0V70.2z"/>
		<path d="M708.5,68.4c-4.6,0-7.1,3.1-7.1,8.6v3.3c0,5.6,2.5,8.7,7.1,8.7s7.1-3.1,7.1-8.7v-3.3C715.6,71.5,713.1,68.4,708.5,68.4     M713.8,77.1v3.3c0,4.6-1.8,7-5.3,7s-5.3-2.3-5.3-7v-3.3c0-4.6,1.8-7,5.3-7S713.8,72.5,713.8,77.1"/>
		<path d="M731.1,68.6h-0.3c-0.4,0-0.7,0.4-0.7,0.8c0,0,0,0,0,0v12.2c0,4-1.5,5.8-4.8,5.8c-3.3,0-4.8-1.8-4.8-5.8V69.4    c0-0.4-0.3-0.8-0.7-0.8h-0.3c-0.4,0-0.7,0.4-0.7,0.8v12.2c0,4.9,2.3,7.5,6.6,7.5s6.6-2.6,6.6-7.5V69.4    C731.9,68.9,731.5,68.6,731.1,68.6C731.1,68.6,731.1,68.6,731.1,68.6"/>
		<path d="M739.9,68.4c-0.9,0-2.1,0-3.6,0.1c-0.4,0.1-0.7,0.4-0.7,0.8v18.7c0,0.4,0.3,0.8,0.7,0.8c0,0,0,0,0,0h0.3    c0.4,0,0.8-0.4,0.7-0.8v-7.6c0.5,0,1.6,0.1,2.6,0.1c5.1,0,7.5-2,7.5-6v-0.5C747.4,70.3,744.8,68.4,739.9,68.4 M737.3,70.1    c0.7,0,1.6-0.1,2.6-0.1c4.1,0,5.8,1.2,5.8,4.1v0.5c0,3.1-1.7,4.4-5.8,4.4c-0.8,0-1.8,0-2.6-0.1V70.1z"/>
		<path d="M641,65.1c0,4.4-3.6,7.9-7.9,7.9c-4.4,0-7.9-3.6-7.9-7.9c0-4.4,3.6-7.9,7.9-7.9c0.9,0,1.8,0.2,2.7,0.5L643,42    c-12.7-5.5-27.6,0.3-33.1,13.1c-5.5,12.7,0.3,27.6,13.1,33.1c12.7,5.5,27.6-0.3,33.1-13.1c2.1-4.9,2.6-10.4,1.4-15.6h-18.9    C640.1,61,641,63,641,65.1"/>
		<line class="st1" x1="793.9" y1="43.4" x2="793.9" y2="88.1"/>
	</g>
</g>
</svg>